<svg xmlns="http://www.w3.org/2000/svg" viewBox="0 0 600 400" role="img" aria-label="Gado-Gado">
  <defs><radialGradient id="t" cx="50%" cy="40%" r="70%"><stop offset="0%" stop-color="#f4e7c9"/><stop offset="100%" stop-color="#e0c594"/></radialGradient></defs>
  <rect width="600" height="400" fill="url(#t)"/>
  <circle cx="300" cy="200" r="152" fill="#fffaf0"/>
  <circle cx="300" cy="200" r="152" fill="none" stroke="#e7d8bd" stroke-width="6"/>
  <circle cx="300" cy="200" r="120" fill="#f2ead6"/>
  <g fill="#3f9b54"><ellipse cx="250" cy="170" rx="34" ry="16" transform="rotate(-25 250 170)"/><ellipse cx="330" cy="160" rx="30" ry="14" transform="rotate(20 330 160)"/><ellipse cx="350" cy="220" rx="32" ry="15" transform="rotate(-15 350 220)"/></g>
  <g fill="#67b86f"><ellipse cx="220" cy="220" rx="26" ry="12" transform="rotate(30 220 220)"/><ellipse cx="300" cy="250" rx="30" ry="14" transform="rotate(-10 300 250)"/></g>
  <g fill="#e8772e"><rect x="245" y="195" width="46" height="12" rx="6" transform="rotate(35 268 201)"/><rect x="300" y="180" width="46" height="12" rx="6" transform="rotate(-20 323 186)"/></g>
  <circle cx="305" cy="210" r="26" fill="#fffefb"/><circle cx="305" cy="210" r="12" fill="#f4b400"/>
  <circle cx="255" cy="245" r="22" fill="#fffefb"/><circle cx="255" cy="245" r="10" fill="#f4b400"/>
  <g fill="#b23b22"><circle cx="280" cy="150" r="5"/><circle cx="340" cy="245" r="5"/><circle cx="210" cy="190" r="4"/></g>
</svg>
