<svg xmlns="http://www.w3.org/2000/svg" viewBox="0 0 600 400" role="img" aria-label="Rendang Sapi">
  <defs><radialGradient id="t" cx="50%" cy="40%" r="70%"><stop offset="0%" stop-color="#f4e7c9"/><stop offset="100%" stop-color="#e0c594"/></radialGradient></defs>
  <rect width="600" height="400" fill="url(#t)"/>
  <circle cx="300" cy="200" r="152" fill="#fffaf0"/>
  <circle cx="300" cy="200" r="152" fill="none" stroke="#e7d8bd" stroke-width="6"/>
  <circle cx="300" cy="205" r="118" fill="#6e3f23"/>
  <ellipse cx="300" cy="190" rx="116" ry="100" fill="#7d4a2a"/>
  <g fill="#5a3019" stroke="#3f2010" stroke-width="3">
    <rect x="245" y="165" width="50" height="40" rx="12" transform="rotate(-12 270 185)"/>
    <rect x="305" y="150" width="52" height="42" rx="12" transform="rotate(15 331 171)"/>
    <rect x="255" y="215" width="50" height="40" rx="12" transform="rotate(20 280 235)"/>
    <rect x="315" y="205" width="48" height="38" rx="12" transform="rotate(-18 339 224)"/>
  </g>
  <g fill="#9c5f25"><ellipse cx="240" cy="200" rx="10" ry="6"/><ellipse cx="360" cy="205" rx="10" ry="6"/><ellipse cx="300" cy="250" rx="10" ry="6"/></g>
  <g fill="#caa15a"><circle cx="285" cy="180" r="4"/><circle cx="330" cy="225" r="4"/><circle cx="260" cy="235" r="3"/></g>
  <g fill="#3f7d4a"><path d="M345 160c8-6 16-4 18 2-8 4-15 3-18-2z"/><path d="M250 250c-8-6-8-14-2-17 5 7 6 13 2 17z"/></g>
</svg>
